{"Protocol":0,"Id":"6b89fc927f36dbdcd331e35809ca39be","Path":"/Passport/Supun/Tron Ares (2025) English WEBRip-[CineSubz.co]-1080p.mp4","EncoderPath":null,"EncoderProtocol":null,"Type":0,"Container":"mov,mp4,m4a,3gp,3g2,mj2","Size":2947606014,"Name":"Tron Ares (2025) English WEBRip-[CineSubz.co]-1080p","IsRemote":false,"ETag":"be4b9d3f7d9af33caad3b4ec99a816ee","RunTimeTicks":71984640000,"ReadAtNativeFramerate":false,"IgnoreDts":false,"IgnoreIndex":false,"GenPtsInput":false,"SupportsTranscoding":true,"SupportsDirectStream":true,"SupportsDirectPlay":true,"IsInfiniteStream":false,"UseMostCompatibleTranscodingProfile":false,"RequiresOpening":false,"OpenToken":null,"RequiresClosing":false,"LiveStreamId":null,"BufferMs":null,"RequiresLooping":false,"SupportsProbing":true,"VideoType":0,"IsoType":null,"Video3DFormat":null,"MediaStreams":[{"Codec":"h264","CodecTag":"avc1","Language":"eng","ColorRange":null,"ColorSpace":null,"ColorTransfer":null,"ColorPrimaries":null,"DvVersionMajor":null,"DvVersionMinor":null,"DvProfile":null,"DvLevel":null,"RpuPresentFlag":null,"ElPresentFlag":null,"BlPresentFlag":null,"DvBlSignalCompatibilityId":null,"Rotation":null,"Comment":null,"TimeBase":"1/12288","CodecTimeBase":null,"Title":null,"Hdr10PlusPresentFlag":null,"VideoRange":1,"VideoRangeType":1,"VideoDoViTitle":null,"AudioSpatialFormat":0,"LocalizedUndefined":null,"LocalizedDefault":null,"LocalizedForced":null,"LocalizedExternal":null,"LocalizedHearingImpaired":null,"DisplayTitle":"1080p H264 SDR","NalLengthSize":"4","IsInterlaced":false,"IsAVC":true,"ChannelLayout":null,"BitRate":2951682,"BitDepth":8,"RefFrames":1,"PacketLength":null,"Channels":null,"SampleRate":null,"IsDefault":true,"IsForced":false,"IsHearingImpaired":false,"Height":1080,"Width":1920,"AverageFrameRate":24,"RealFrameRate":24,"ReferenceFrameRate":24,"Profile":"High","Type":1,"AspectRatio":"2.40:1","Index":0,"Score":null,"IsExternal":false,"DeliveryMethod":null,"DeliveryUrl":null,"IsExternalUrl":null,"IsTextSubtitleStream":false,"SupportsExternalStream":false,"Path":null,"PixelFormat":"yuv420p","Level":40,"IsAnamorphic":true},{"Codec":"aac","CodecTag":"mp4a","Language":"eng","ColorRange":null,"ColorSpace":null,"ColorTransfer":null,"ColorPrimaries":null,"DvVersionMajor":null,"DvVersionMinor":null,"DvProfile":null,"DvLevel":null,"RpuPresentFlag":null,"ElPresentFlag":null,"BlPresentFlag":null,"DvBlSignalCompatibilityId":null,"Rotation":null,"Comment":null,"TimeBase":"1/48000","CodecTimeBase":null,"Title":null,"Hdr10PlusPresentFlag":null,"VideoRange":0,"VideoRangeType":0,"VideoDoViTitle":null,"AudioSpatialFormat":0,"LocalizedUndefined":null,"LocalizedDefault":"Default","LocalizedForced":null,"LocalizedExternal":"External","LocalizedHearingImpaired":null,"DisplayTitle":"English - AAC - 5.1 - Default","NalLengthSize":null,"IsInterlaced":false,"IsAVC":false,"ChannelLayout":"5.1","BitRate":319999,"BitDepth":null,"RefFrames":null,"PacketLength":null,"Channels":6,"SampleRate":48000,"IsDefault":true,"IsForced":false,"IsHearingImpaired":false,"Height":null,"Width":null,"AverageFrameRate":null,"RealFrameRate":null,"ReferenceFrameRate":null,"Profile":"LC","Type":0,"AspectRatio":null,"Index":1,"Score":null,"IsExternal":false,"DeliveryMethod":null,"DeliveryUrl":null,"IsExternalUrl":null,"IsTextSubtitleStream":false,"SupportsExternalStream":false,"Path":null,"PixelFormat":null,"Level":0,"IsAnamorphic":null}],"MediaAttachments":[],"Formats":[],"Bitrate":3275816,"FallbackMaxStreamingBitrate":null,"Timestamp":null,"RequiredHttpHeaders":{},"TranscodingUrl":null,"TranscodingSubProtocol":0,"TranscodingContainer":null,"AnalyzeDurationMs":null,"DefaultAudioStreamIndex":null,"DefaultSubtitleStreamIndex":null,"HasSegments":false}

/usr/lib/jellyfin-ffmpeg/ffmpeg -analyzeduration 200M -probesize 1G -fflags +genpts  -i file:"/Passport/Supun/Tron Ares (2025) English WEBRip-[CineSubz.co]-1080p.mp4" -map_metadata -1 -map_chapters -1 -threads 0 -map 0:0 -map 0:1 -map -0:s -codec:v:0 copy -bsf:v h264_mp4toannexb -start_at_zero -codec:a:0 copy -copyts -avoid_negative_ts disabled -max_muxing_queue_size 2048 -f hls -max_delay 5000000 -hls_time 6 -hls_segment_type fmp4 -hls_fmp4_init_filename "1bcb9f2dbac177c6412c1e4e405f44bb-1.mp4" -start_number 0 -hls_segment_filename "/cache/transcodes/1bcb9f2dbac177c6412c1e4e405f44bb%d.mp4" -hls_playlist_type vod -hls_list_size 0 -hls_segment_options movflags=+frag_discont -y "/cache/transcodes/1bcb9f2dbac177c6412c1e4e405f44bb.m3u8"


ffmpeg version 7.1.3-Jellyfin Copyright (c) 2000-2025 the FFmpeg developers
  built with gcc 14 (Debian 14.2.0-19)
  configuration: --prefix=/usr/lib/jellyfin-ffmpeg --target-os=linux --extra-version=Jellyfin --disable-doc --disable-ffplay --disable-static --disable-libxcb --disable-sdl2 --disable-xlib --enable-lto=auto --enable-gpl --enable-version3 --enable-shared --enable-gmp --enable-gnutls --enable-chromaprint --enable-opencl --enable-libdrm --enable-libxml2 --enable-libass --enable-libfreetype --enable-libfribidi --enable-libfontconfig --enable-libharfbuzz --enable-libbluray --enable-libmp3lame --enable-libopus --enable-libtheora --enable-libvorbis --enable-libopenmpt --enable-libdav1d --enable-libsvtav1 --enable-libwebp --enable-libvpx --enable-libx264 --enable-libx265 --enable-libzvbi --enable-libzimg --enable-libfdk-aac --arch=arm64 --cross-prefix=/usr/bin/aarch64-linux-gnu- --toolchain=hardened --enable-cross-compile --enable-rkmpp --enable-rkrga --enable-ffnvcodec --enable-cuda --enable-cuda-llvm --enable-cuvid --enable-nvdec --enable-nvenc
  libavutil      59. 39.100 / 59. 39.100
  libavcodec     61. 19.101 / 61. 19.101
  libavformat    61.  7.100 / 61.  7.100
  libavdevice    61.  3.100 / 61.  3.100
  libavfilter    10.  4.100 / 10.  4.100
  libswscale      8.  3.100 /  8.  3.100
  libswresample   5.  3.100 /  5.  3.100
  libpostproc    58.  3.100 / 58.  3.100
Input #0, mov,mp4,m4a,3gp,3g2,mj2, from 'file:/Passport/Supun/Tron Ares (2025) English WEBRip-[CineSubz.co]-1080p.mp4':
  Metadata:
    major_brand     : isom
    minor_version   : 512
    compatible_brands: isomiso2avc1mp41
    encoder         : Lavf56.25.101
  Duration: 01:59:58.46, start: 0.000000, bitrate: 3275 kb/s
  Stream #0:0[0x1](eng): Video: h264 (High) (avc1 / 0x31637661), yuv420p(progressive), 1920x1080 [SAR 27:20 DAR 12:5], 2951 kb/s, 24 fps, 24 tbr, 12288 tbn (default)
      Metadata:
        handler_name    : VideoHandler
        vendor_id       : [0][0][0][0]
  Stream #0:1[0x2](eng): Audio: aac (LC) (mp4a / 0x6134706D), 48000 Hz, 5.1, fltp, 319 kb/s (default)
      Metadata:
        handler_name    : SoundHandler
        vendor_id       : [0][0][0][0]
Stream mapping:
  Stream #0:0 -> #0:0 (copy)
  Stream #0:1 -> #0:1 (copy)
[hls @ 0x7ffec40c5500] Opening '/cache/transcodes/1bcb9f2dbac177c6412c1e4e405f44bb-1.mp4' for writing
Output #0, hls, to '/cache/transcodes/1bcb9f2dbac177c6412c1e4e405f44bb.m3u8':
  Metadata:
    encoder         : Lavf61.7.100
  Stream #0:0: Video: h264 (High) (avc1 / 0x31637661), yuv420p(progressive), 1920x1080 [SAR 27:20 DAR 12:5], q=2-31, 2951 kb/s, 24 fps, 24 tbr, 12288 tbn (default)
  Stream #0:1: Audio: aac (LC) (mp4a / 0x6134706D), 48000 Hz, 5.1, fltp, 319 kb/s (default)
Press [q] to stop, [?] for help
[hls @ 0x7ffec40c5500] Opening '/cache/transcodes/1bcb9f2dbac177c6412c1e4e405f44bb0.mp4' for writing
[hls @ 0x7ffec40c5500] Opening '/cache/transcodes/1bcb9f2dbac177c6412c1e4e405f44bb1.mp4' for writing
[hls @ 0x7ffec40c5500] Opening '/cache/transcodes/1bcb9f2dbac177c6412c1e4e405f44bb2.mp4' for writing
[hls @ 0x7ffec40c5500] Opening '/cache/transcodes/1bcb9f2dbac177c6412c1e4e405f44bb3.mp4' for writing
[hls @ 0x7ffec40c5500] Opening '/cache/transcodes/1bcb9f2dbac177c6412c1e4e405f44bb4.mp4' for writing
[hls @ 0x7ffec40c5500] Opening '/cache/transcodes/1bcb9f2dbac177c6412c1e4e405f44bb5.mp4' for writing
[hls @ 0x7ffec40c5500] Opening '/cache/transcodes/1bcb9f2dbac177c6412c1e4e405f44bb6.mp4' for writing
[hls @ 0x7ffec40c5500] Opening '/cache/transcodes/1bcb9f2dbac177c6412c1e4e405f44bb7.mp4' for writing
[hls @ 0x7ffec40c5500] Opening '/cache/transcodes/1bcb9f2dbac177c6412c1e4e405f44bb8.mp4' for writing
[hls @ 0x7ffec40c5500] Opening '/cache/transcodes/1bcb9f2dbac177c6412c1e4e405f44bb9.mp4' for writing
[hls @ 0x7ffec40c5500] Opening '/cache/transcodes/1bcb9f2dbac177c6412c1e4e405f44bb10.mp4' for writing
[hls @ 0x7ffec40c5500] Opening '/cache/transcodes/1bcb9f2dbac177c6412c1e4e405f44bb11.mp4' for writing
[hls @ 0x7ffec40c5500] Opening '/cache/transcodes/1bcb9f2dbac177c6412c1e4e405f44bb12.mp4' for writing
[hls @ 0x7ffec40c5500] Opening '/cache/transcodes/1bcb9f2dbac177c6412c1e4e405f44bb13.mp4' for writing
[hls @ 0x7ffec40c5500] Opening '/cache/transcodes/1bcb9f2dbac177c6412c1e4e405f44bb14.mp4' for writing
[hls @ 0x7ffec40c5500] Opening '/cache/transcodes/1bcb9f2dbac177c6412c1e4e405f44bb15.mp4' for writing
[hls @ 0x7ffec40c5500] Opening '/cache/transcodes/1bcb9f2dbac177c6412c1e4e405f44bb16.mp4' for writing
[hls @ 0x7ffec40c5500] Opening '/cache/transcodes/1bcb9f2dbac177c6412c1e4e405f44bb17.mp4' for writing
[hls @ 0x7ffec40c5500] Opening '/cache/transcodes/1bcb9f2dbac177c6412c1e4e405f44bb18.mp4' for writing
[hls @ 0x7ffec40c5500] Opening '/cache/transcodes/1bcb9f2dbac177c6412c1e4e405f44bb19.mp4' for writing
[hls @ 0x7ffec40c5500] Opening '/cache/transcodes/1bcb9f2dbac177c6412c1e4e405f44bb20.mp4' for writing
[hls @ 0x7ffec40c5500] Opening '/cache/transcodes/1bcb9f2dbac177c6412c1e4e405f44bb21.mp4' for writing
[hls @ 0x7ffec40c5500] Opening '/cache/transcodes/1bcb9f2dbac177c6412c1e4e405f44bb22.mp4' for writing
frame= 3420 fps=0.0 q=-1.0 size=N/A time=00:00:00.00 bitrate=N/A speed=   0x    
[hls @ 0x7ffec40c5500] Opening '/cache/transcodes/1bcb9f2dbac177c6412c1e4e405f44bb23.mp4' for writing
[hls @ 0x7ffec40c5500] Opening '/cache/transcodes/1bcb9f2dbac177c6412c1e4e405f44bb24.mp4' for writing
[hls @ 0x7ffec40c5500] Opening '/cache/transcodes/1bcb9f2dbac177c6412c1e4e405f44bb25.mp4' for writing
[hls @ 0x7ffec40c5500] Opening '/cache/transcodes/1bcb9f2dbac177c6412c1e4e405f44bb26.mp4' for writing
[hls @ 0x7ffec40c5500] Opening '/cache/transcodes/1bcb9f2dbac177c6412c1e4e405f44bb27.mp4' for writing
[hls @ 0x7ffec40c5500] Opening '/cache/transcodes/1bcb9f2dbac177c6412c1e4e405f44bb28.mp4' for writing
[hls @ 0x7ffec40c5500] Opening '/cache/transcodes/1bcb9f2dbac177c6412c1e4e405f44bb29.mp4' for writing
[hls @ 0x7ffec40c5500] Opening '/cache/transcodes/1bcb9f2dbac177c6412c1e4e405f44bb30.mp4' for writing
[hls @ 0x7ffec40c5500] Opening '/cache/transcodes/1bcb9f2dbac177c6412c1e4e405f44bb31.mp4' for writing
[hls @ 0x7ffec40c5500] Opening '/cache/transcodes/1bcb9f2dbac177c6412c1e4e405f44bb32.mp4' for writing
[hls @ 0x7ffec40c5500] Opening '/cache/transcodes/1bcb9f2dbac177c6412c1e4e405f44bb33.mp4' for writing
[hls @ 0x7ffec40c5500] Opening '/cache/transcodes/1bcb9f2dbac177c6412c1e4e405f44bb34.mp4' for writing
[hls @ 0x7ffec40c5500] Opening '/cache/transcodes/1bcb9f2dbac177c6412c1e4e405f44bb35.mp4' for writing
[hls @ 0x7ffec40c5500] Opening '/cache/transcodes/1bcb9f2dbac177c6412c1e4e405f44bb36.mp4' for writing
[hls @ 0x7ffec40c5500] Opening '/cache/transcodes/1bcb9f2dbac177c6412c1e4e405f44bb37.mp4' for writing
[hls @ 0x7ffec40c5500] Opening '/cache/transcodes/1bcb9f2dbac177c6412c1e4e405f44bb38.mp4' for writing
[hls @ 0x7ffec40c5500] Opening '/cache/transcodes/1bcb9f2dbac177c6412c1e4e405f44bb39.mp4' for writing
[hls @ 0x7ffec40c5500] Opening '/cache/transcodes/1bcb9f2dbac177c6412c1e4e405f44bb40.mp4' for writing
[hls @ 0x7ffec40c5500] Opening '/cache/transcodes/1bcb9f2dbac177c6412c1e4e405f44bb41.mp4' for writing
[hls @ 0x7ffec40c5500] Opening '/cache/transcodes/1bcb9f2dbac177c6412c1e4e405f44bb42.mp4' for writing
[hls @ 0x7ffec40c5500] Opening '/cache/transcodes/1bcb9f2dbac177c6412c1e4e405f44bb43.mp4' for writing
[hls @ 0x7ffec40c5500] Opening '/cache/transcodes/1bcb9f2dbac177c6412c1e4e405f44bb44.mp4' for writing
[hls @ 0x7ffec40c5500] Opening '/cache/transcodes/1bcb9f2dbac177c6412c1e4e405f44bb45.mp4' for writing
[hls @ 0x7ffec40c5500] Opening '/cache/transcodes/1bcb9f2dbac177c6412c1e4e405f44bb46.mp4' for writing
[hls @ 0x7ffec40c5500] Opening '/cache/transcodes/1bcb9f2dbac177c6412c1e4e405f44bb47.mp4' for writing
[hls @ 0x7ffec40c5500] Opening '/cache/transcodes/1bcb9f2dbac177c6412c1e4e405f44bb48.mp4' for writing
[hls @ 0x7ffec40c5500] Opening '/cache/transcodes/1bcb9f2dbac177c6412c1e4e405f44bb49.mp4' for writing
[hls @ 0x7ffec40c5500] Opening '/cache/transcodes/1bcb9f2dbac177c6412c1e4e405f44bb50.mp4' for writing
[hls @ 0x7ffec40c5500] Opening '/cache/transcodes/1bcb9f2dbac177c6412c1e4e405f44bb51.mp4' for writing
[hls @ 0x7ffec40c5500] Opening '/cache/transcodes/1bcb9f2dbac177c6412c1e4e405f44bb52.mp4' for writing
[hls @ 0x7ffec40c5500] Opening '/cache/transcodes/1bcb9f2dbac177c6412c1e4e405f44bb53.mp4' for writing
[hls @ 0x7ffec40c5500] Opening '/cache/transcodes/1bcb9f2dbac177c6412c1e4e405f44bb54.mp4' for writing
frame= 7984 fps=7977 q=-1.0 size=N/A time=00:03:10.12 bitrate=N/A speed= 190x    
[hls @ 0x7ffec40c5500] Opening '/cache/transcodes/1bcb9f2dbac177c6412c1e4e405f44bb55.mp4' for writing
[hls @ 0x7ffec40c5500] Opening '/cache/transcodes/1bcb9f2dbac177c6412c1e4e405f44bb56.mp4' for writing
[hls @ 0x7ffec40c5500] Opening '/cache/transcodes/1bcb9f2dbac177c6412c1e4e405f44bb57.mp4' for writing
[hls @ 0x7ffec40c5500] Opening '/cache/transcodes/1bcb9f2dbac177c6412c1e4e405f44bb58.mp4' for writing
[hls @ 0x7ffec40c5500] Opening '/cache/transcodes/1bcb9f2dbac177c6412c1e4e405f44bb59.mp4' for writing
[hls @ 0x7ffec40c5500] Opening '/cache/transcodes/1bcb9f2dbac177c6412c1e4e405f44bb60.mp4' for writing
[hls @ 0x7ffec40c5500] Opening '/cache/transcodes/1bcb9f2dbac177c6412c1e4e405f44bb61.mp4' for writing
[hls @ 0x7ffec40c5500] Opening '/cache/transcodes/1bcb9f2dbac177c6412c1e4e405f44bb62.mp4' for writing
[hls @ 0x7ffec40c5500] Opening '/cache/transcodes/1bcb9f2dbac177c6412c1e4e405f44bb63.mp4' for writing
[hls @ 0x7ffec40c5500] Opening '/cache/transcodes/1bcb9f2dbac177c6412c1e4e405f44bb64.mp4' for writing
[hls @ 0x7ffec40c5500] Opening '/cache/transcodes/1bcb9f2dbac177c6412c1e4e405f44bb65.mp4' for writing
[hls @ 0x7ffec40c5500] Opening '/cache/transcodes/1bcb9f2dbac177c6412c1e4e405f44bb66.mp4' for writing
[hls @ 0x7ffec40c5500] Opening '/cache/transcodes/1bcb9f2dbac177c6412c1e4e405f44bb67.mp4' for writing
[hls @ 0x7ffec40c5500] Opening '/cache/transcodes/1bcb9f2dbac177c6412c1e4e405f44bb68.mp4' for writing
[hls @ 0x7ffec40c5500] Opening '/cache/transcodes/1bcb9f2dbac177c6412c1e4e405f44bb69.mp4' for writing
[hls @ 0x7ffec40c5500] Opening '/cache/transcodes/1bcb9f2dbac177c6412c1e4e405f44bb70.mp4' for writing
[hls @ 0x7ffec40c5500] Opening '/cache/transcodes/1bcb9f2dbac177c6412c1e4e405f44bb71.mp4' for writing
[hls @ 0x7ffec40c5500] Opening '/cache/transcodes/1bcb9f2dbac177c6412c1e4e405f44bb72.mp4' for writing
[hls @ 0x7ffec40c5500] Opening '/cache/transcodes/1bcb9f2dbac177c6412c1e4e405f44bb73.mp4' for writing
[hls @ 0x7ffec40c5500] Opening '/cache/transcodes/1bcb9f2dbac177c6412c1e4e405f44bb74.mp4' for writing
[hls @ 0x7ffec40c5500] Opening '/cache/transcodes/1bcb9f2dbac177c6412c1e4e405f44bb75.mp4' for writing
[hls @ 0x7ffec40c5500] Opening '/cache/transcodes/1bcb9f2dbac177c6412c1e4e405f44bb76.mp4' for writing
[hls @ 0x7ffec40c5500] Opening '/cache/transcodes/1bcb9f2dbac177c6412c1e4e405f44bb77.mp4' for writing
[hls @ 0x7ffec40c5500] Opening '/cache/transcodes/1bcb9f2dbac177c6412c1e4e405f44bb78.mp4' for writing
[hls @ 0x7ffec40c5500] Opening '/cache/transcodes/1bcb9f2dbac177c6412c1e4e405f44bb79.mp4' for writing
[hls @ 0x7ffec40c5500] Opening '/cache/transcodes/1bcb9f2dbac177c6412c1e4e405f44bb80.mp4' for writing
[hls @ 0x7ffec40c5500] Opening '/cache/transcodes/1bcb9f2dbac177c6412c1e4e405f44bb81.mp4' for writing
[hls @ 0x7ffec40c5500] Opening '/cache/transcodes/1bcb9f2dbac177c6412c1e4e405f44bb82.mp4' for writing
[hls @ 0x7ffec40c5500] Opening '/cache/transcodes/1bcb9f2dbac177c6412c1e4e405f44bb83.mp4' for writing
[hls @ 0x7ffec40c5500] Opening '/cache/transcodes/1bcb9f2dbac177c6412c1e4e405f44bb84.mp4' for writing
[hls @ 0x7ffec40c5500] Opening '/cache/transcodes/1bcb9f2dbac177c6412c1e4e405f44bb85.mp4' for writing
[hls @ 0x7ffec40c5500] Opening '/cache/transcodes/1bcb9f2dbac177c6412c1e4e405f44bb86.mp4' for writing
[hls @ 0x7ffec40c5500] Opening '/cache/transcodes/1bcb9f2dbac177c6412c1e4e405f44bb87.mp4' for writing
frame=12751 fps=8473 q=-1.0 size=N/A time=00:06:28.83 bitrate=N/A speed= 258x    
[hls @ 0x7ffec40c5500] Opening '/cache/transcodes/1bcb9f2dbac177c6412c1e4e405f44bb88.mp4' for writing
[hls @ 0x7ffec40c5500] Opening '/cache/transcodes/1bcb9f2dbac177c6412c1e4e405f44bb89.mp4' for writing
[hls @ 0x7ffec40c5500] Opening '/cache/transcodes/1bcb9f2dbac177c6412c1e4e405f44bb90.mp4' for writing
[hls @ 0x7ffec40c5500] Opening '/cache/transcodes/1bcb9f2dbac177c6412c1e4e405f44bb91.mp4' for writing
[hls @ 0x7ffec40c5500] Opening '/cache/transcodes/1bcb9f2dbac177c6412c1e4e405f44bb92.mp4' for writing
[hls @ 0x7ffec40c5500] Opening '/cache/transcodes/1bcb9f2dbac177c6412c1e4e405f44bb93.mp4' for writing
[hls @ 0x7ffec40c5500] Opening '/cache/transcodes/1bcb9f2dbac177c6412c1e4e405f44bb94.mp4' for writing
[hls @ 0x7ffec40c5500] Opening '/cache/transcodes/1bcb9f2dbac177c6412c1e4e405f44bb95.mp4' for writing
[hls @ 0x7ffec40c5500] Opening '/cache/transcodes/1bcb9f2dbac177c6412c1e4e405f44bb96.mp4' for writing
[hls @ 0x7ffec40c5500] Opening '/cache/transcodes/1bcb9f2dbac177c6412c1e4e405f44bb97.mp4' for writing
[hls @ 0x7ffec40c5500] Opening '/cache/transcodes/1bcb9f2dbac177c6412c1e4e405f44bb98.mp4' for writing
[hls @ 0x7ffec40c5500] Opening '/cache/transcodes/1bcb9f2dbac177c6412c1e4e405f44bb99.mp4' for writing
[hls @ 0x7ffec40c5500] Opening '/cache/transcodes/1bcb9f2dbac177c6412c1e4e405f44bb100.mp4' for writing
[hls @ 0x7ffec40c5500] Opening '/cache/transcodes/1bcb9f2dbac177c6412c1e4e405f44bb101.mp4' for writing
[hls @ 0x7ffec40c5500] Opening '/cache/transcodes/1bcb9f2dbac177c6412c1e4e405f44bb102.mp4' for writing
[hls @ 0x7ffec40c5500] Opening '/cache/transcodes/1bcb9f2dbac177c6412c1e4e405f44bb103.mp4' for writing
[hls @ 0x7ffec40c5500] Opening '/cache/transcodes/1bcb9f2dbac177c6412c1e4e405f44bb104.mp4' for writing
[hls @ 0x7ffec40c5500] Opening '/cache/transcodes/1bcb9f2dbac177c6412c1e4e405f44bb105.mp4' for writing
[hls @ 0x7ffec40c5500] Opening '/cache/transcodes/1bcb9f2dbac177c6412c1e4e405f44bb106.mp4' for writing
[hls @ 0x7ffec40c5500] Opening '/cache/transcodes/1bcb9f2dbac177c6412c1e4e405f44bb107.mp4' for writing
[hls @ 0x7ffec40c5500] Opening '/cache/transcodes/1bcb9f2dbac177c6412c1e4e405f44bb108.mp4' for writing
[hls @ 0x7ffec40c5500] Opening '/cache/transcodes/1bcb9f2dbac177c6412c1e4e405f44bb109.mp4' for writing
[hls @ 0x7ffec40c5500] Opening '/cache/transcodes/1bcb9f2dbac177c6412c1e4e405f44bb110.mp4' for writing
[hls @ 0x7ffec40c5500] Opening '/cache/transcodes/1bcb9f2dbac177c6412c1e4e405f44bb111.mp4' for writing
[hls @ 0x7ffec40c5500] Opening '/cache/transcodes/1bcb9f2dbac177c6412c1e4e405f44bb112.mp4' for writing
[hls @ 0x7ffec40c5500] Opening '/cache/transcodes/1bcb9f2dbac177c6412c1e4e405f44bb113.mp4' for writing
[hls @ 0x7ffec40c5500] Opening '/cache/transcodes/1bcb9f2dbac177c6412c1e4e405f44bb114.mp4' for writing
[hls @ 0x7ffec40c5500] Opening '/cache/transcodes/1bcb9f2dbac177c6412c1e4e405f44bb115.mp4' for writing
[hls @ 0x7ffec40c5500] Opening '/cache/transcodes/1bcb9f2dbac177c6412c1e4e405f44bb116.mp4' for writing
[hls @ 0x7ffec40c5500] Opening '/cache/transcodes/1bcb9f2dbac177c6412c1e4e405f44bb117.mp4' for writing
[hls @ 0x7ffec40c5500] Opening '/cache/transcodes/1bcb9f2dbac177c6412c1e4e405f44bb118.mp4' for writing
[hls @ 0x7ffec40c5500] Opening '/cache/transcodes/1bcb9f2dbac177c6412c1e4e405f44bb119.mp4' for writing
[hls @ 0x7ffec40c5500] Opening '/cache/transcodes/1bcb9f2dbac177c6412c1e4e405f44bb120.mp4' for writing
[hls @ 0x7ffec40c5500] Opening '/cache/transcodes/1bcb9f2dbac177c6412c1e4e405f44bb121.mp4' for writing
[hls @ 0x7ffec40c5500] Opening '/cache/transcodes/1bcb9f2dbac177c6412c1e4e405f44bb122.mp4' for writing
[hls @ 0x7ffec40c5500] Opening '/cache/transcodes/1bcb9f2dbac177c6412c1e4e405f44bb123.mp4' for writing
frame=18003 fps=8979 q=-1.0 size=N/A time=00:10:07.72 bitrate=N/A speed= 303x    
[hls @ 0x7ffec40c5500] Opening '/cache/transcodes/1bcb9f2dbac177c6412c1e4e405f44bb124.mp4' for writing
[hls @ 0x7ffec40c5500] Opening '/cache/transcodes/1bcb9f2dbac177c6412c1e4e405f44bb125.mp4' for writing
[hls @ 0x7ffec40c5500] Opening '/cache/transcodes/1bcb9f2dbac177c6412c1e4e405f44bb126.mp4' for writing
[hls @ 0x7ffec40c5500] Opening '/cache/transcodes/1bcb9f2dbac177c6412c1e4e405f44bb127.mp4' for writing
[hls @ 0x7ffec40c5500] Opening '/cache/transcodes/1bcb9f2dbac177c6412c1e4e405f44bb128.mp4' for writing
[hls @ 0x7ffec40c5500] Opening '/cache/transcodes/1bcb9f2dbac177c6412c1e4e405f44bb129.mp4' for writing
[hls @ 0x7ffec40c5500] Opening '/cache/transcodes/1bcb9f2dbac177c6412c1e4e405f44bb130.mp4' for writing
[hls @ 0x7ffec40c5500] Opening '/cache/transcodes/1bcb9f2dbac177c6412c1e4e405f44bb131.mp4' for writing
[hls @ 0x7ffec40c5500] Opening '/cache/transcodes/1bcb9f2dbac177c6412c1e4e405f44bb132.mp4' for writing
[hls @ 0x7ffec40c5500] Opening '/cache/transcodes/1bcb9f2dbac177c6412c1e4e405f44bb133.mp4' for writing
[hls @ 0x7ffec40c5500] Opening '/cache/transcodes/1bcb9f2dbac177c6412c1e4e405f44bb134.mp4' for writing
[hls @ 0x7ffec40c5500] Opening '/cache/transcodes/1bcb9f2dbac177c6412c1e4e405f44bb135.mp4' for writing
[hls @ 0x7ffec40c5500] Opening '/cache/transcodes/1bcb9f2dbac177c6412c1e4e405f44bb136.mp4' for writing
[hls @ 0x7ffec40c5500] Opening '/cache/transcodes/1bcb9f2dbac177c6412c1e4e405f44bb137.mp4' for writing
[hls @ 0x7ffec40c5500] Opening '/cache/transcodes/1bcb9f2dbac177c6412c1e4e405f44bb138.mp4' for writing
[hls @ 0x7ffec40c5500] Opening '/cache/transcodes/1bcb9f2dbac177c6412c1e4e405f44bb139.mp4' for writing
[hls @ 0x7ffec40c5500] Opening '/cache/transcodes/1bcb9f2dbac177c6412c1e4e405f44bb140.mp4' for writing
[hls @ 0x7ffec40c5500] Opening '/cache/transcodes/1bcb9f2dbac177c6412c1e4e405f44bb141.mp4' for writing
[hls @ 0x7ffec40c5500] Opening '/cache/transcodes/1bcb9f2dbac177c6412c1e4e405f44bb142.mp4' for writing
[hls @ 0x7ffec40c5500] Opening '/cache/transcodes/1bcb9f2dbac177c6412c1e4e405f44bb143.mp4' for writing
[hls @ 0x7ffec40c5500] Opening '/cache/transcodes/1bcb9f2dbac177c6412c1e4e405f44bb144.mp4' for writing
[hls @ 0x7ffec40c5500] Opening '/cache/transcodes/1bcb9f2dbac177c6412c1e4e405f44bb145.mp4' for writing
[hls @ 0x7ffec40c5500] Opening '/cache/transcodes/1bcb9f2dbac177c6412c1e4e405f44bb146.mp4' for writing
[hls @ 0x7ffec40c5500] Opening '/cache/transcodes/1bcb9f2dbac177c6412c1e4e405f44bb147.mp4' for writing
[hls @ 0x7ffec40c5500] Opening '/cache/transcodes/1bcb9f2dbac177c6412c1e4e405f44bb148.mp4' for writing
[hls @ 0x7ffec40c5500] Opening '/cache/transcodes/1bcb9f2dbac177c6412c1e4e405f44bb149.mp4' for writing
[hls @ 0x7ffec40c5500] Opening '/cache/transcodes/1bcb9f2dbac177c6412c1e4e405f44bb150.mp4' for writing
[hls @ 0x7ffec40c5500] Opening '/cache/transcodes/1bcb9f2dbac177c6412c1e4e405f44bb151.mp4' for writing
[hls @ 0x7ffec40c5500] Opening '/cache/transcodes/1bcb9f2dbac177c6412c1e4e405f44bb152.mp4' for writing
[hls @ 0x7ffec40c5500] Opening '/cache/transcodes/1bcb9f2dbac177c6412c1e4e405f44bb153.mp4' for writing
[hls @ 0x7ffec40c5500] Opening '/cache/transcodes/1bcb9f2dbac177c6412c1e4e405f44bb154.mp4' for writing
[hls @ 0x7ffec40c5500] Opening '/cache/transcodes/1bcb9f2dbac177c6412c1e4e405f44bb155.mp4' for writing
[hls @ 0x7ffec40c5500] Opening '/cache/transcodes/1bcb9f2dbac177c6412c1e4e405f44bb156.mp4' for writing
[hls @ 0x7ffec40c5500] Opening '/cache/transcodes/1bcb9f2dbac177c6412c1e4e405f44bb157.mp4' for writing
[hls @ 0x7ffec40c5500] Opening '/cache/transcodes/1bcb9f2dbac177c6412c1e4e405f44bb158.mp4' for writing
[hls @ 0x7ffec40c5500] Opening '/cache/transcodes/1bcb9f2dbac177c6412c1e4e405f44bb159.mp4' for writing
[hls @ 0x7ffec40c5500] Opening '/cache/transcodes/1bcb9f2dbac177c6412c1e4e405f44bb160.mp4' for writing
[hls @ 0x7ffec40c5500] Opening '/cache/transcodes/1bcb9f2dbac177c6412c1e4e405f44bb161.mp4' for writing
[hls @ 0x7ffec40c5500] Opening '/cache/transcodes/1bcb9f2dbac177c6412c1e4e405f44bb162.mp4' for writing
[hls @ 0x7ffec40c5500] Opening '/cache/transcodes/1bcb9f2dbac177c6412c1e4e405f44bb163.mp4' for writing
frame=23686 fps=9454 q=-1.0 size=N/A time=00:14:04.41 bitrate=N/A speed= 337x    
[hls @ 0x7ffec40c5500] Opening '/cache/transcodes/1bcb9f2dbac177c6412c1e4e405f44bb164.mp4' for writing
[hls @ 0x7ffec40c5500] Opening '/cache/transcodes/1bcb9f2dbac177c6412c1e4e405f44bb165.mp4' for writing
[hls @ 0x7ffec40c5500] Opening '/cache/transcodes/1bcb9f2dbac177c6412c1e4e405f44bb166.mp4' for writing
[hls @ 0x7ffec40c5500] Opening '/cache/transcodes/1bcb9f2dbac177c6412c1e4e405f44bb167.mp4' for writing
[hls @ 0x7ffec40c5500] Opening '/cache/transcodes/1bcb9f2dbac177c6412c1e4e405f44bb168.mp4' for writing
[hls @ 0x7ffec40c5500] Opening '/cache/transcodes/1bcb9f2dbac177c6412c1e4e405f44bb169.mp4' for writing
[hls @ 0x7ffec40c5500] Opening '/cache/transcodes/1bcb9f2dbac177c6412c1e4e405f44bb170.mp4' for writing
[hls @ 0x7ffec40c5500] Opening '/cache/transcodes/1bcb9f2dbac177c6412c1e4e405f44bb171.mp4' for writing
[hls @ 0x7ffec40c5500] Opening '/cache/transcodes/1bcb9f2dbac177c6412c1e4e405f44bb172.mp4' for writing
[hls @ 0x7ffec40c5500] Opening '/cache/transcodes/1bcb9f2dbac177c6412c1e4e405f44bb173.mp4' for writing
[hls @ 0x7ffec40c5500] Opening '/cache/transcodes/1bcb9f2dbac177c6412c1e4e405f44bb174.mp4' for writing
[hls @ 0x7ffec40c5500] Opening '/cache/transcodes/1bcb9f2dbac177c6412c1e4e405f44bb175.mp4' for writing
[hls @ 0x7ffec40c5500] Opening '/cache/transcodes/1bcb9f2dbac177c6412c1e4e405f44bb176.mp4' for writing
[hls @ 0x7ffec40c5500] Opening '/cache/transcodes/1bcb9f2dbac177c6412c1e4e405f44bb177.mp4' for writing
[hls @ 0x7ffec40c5500] Opening '/cache/transcodes/1bcb9f2dbac177c6412c1e4e405f44bb178.mp4' for writing
[hls @ 0x7ffec40c5500] Opening '/cache/transcodes/1bcb9f2dbac177c6412c1e4e405f44bb179.mp4' for writing
[hls @ 0x7ffec40c5500] Opening '/cache/transcodes/1bcb9f2dbac177c6412c1e4e405f44bb180.mp4' for writing
[hls @ 0x7ffec40c5500] Opening '/cache/transcodes/1bcb9f2dbac177c6412c1e4e405f44bb181.mp4' for writing
[hls @ 0x7ffec40c5500] Opening '/cache/transcodes/1bcb9f2dbac177c6412c1e4e405f44bb182.mp4' for writing
[hls @ 0x7ffec40c5500] Opening '/cache/transcodes/1bcb9f2dbac177c6412c1e4e405f44bb183.mp4' for writing
[hls @ 0x7ffec40c5500] Opening '/cache/transcodes/1bcb9f2dbac177c6412c1e4e405f44bb184.mp4' for writing
[hls @ 0x7ffec40c5500] Opening '/cache/transcodes/1bcb9f2dbac177c6412c1e4e405f44bb185.mp4' for writing
[hls @ 0x7ffec40c5500] Opening '/cache/transcodes/1bcb9f2dbac177c6412c1e4e405f44bb186.mp4' for writing
[hls @ 0x7ffec40c5500] Opening '/cache/transcodes/1bcb9f2dbac177c6412c1e4e405f44bb187.mp4' for writing
[hls @ 0x7ffec40c5500] Opening '/cache/transcodes/1bcb9f2dbac177c6412c1e4e405f44bb188.mp4' for writing
frame=27336 fps=9096 q=-1.0 size=N/A time=00:16:36.59 bitrate=N/A speed= 332x    
[hls @ 0x7ffec40c5500] Opening '/cache/transcodes/1bcb9f2dbac177c6412c1e4e405f44bb189.mp4' for writing
[hls @ 0x7ffec40c5500] Opening '/cache/transcodes/1bcb9f2dbac177c6412c1e4e405f44bb190.mp4' for writing
[hls @ 0x7ffec40c5500] Opening '/cache/transcodes/1bcb9f2dbac177c6412c1e4e405f44bb191.mp4' for writing
[hls @ 0x7ffec40c5500] Opening '/cache/transcodes/1bcb9f2dbac177c6412c1e4e405f44bb192.mp4' for writing
[hls @ 0x7ffec40c5500] Opening '/cache/transcodes/1bcb9f2dbac177c6412c1e4e405f44bb193.mp4' for writing
[hls @ 0x7ffec40c5500] Opening '/cache/transcodes/1bcb9f2dbac177c6412c1e4e405f44bb194.mp4' for writing
[hls @ 0x7ffec40c5500] Opening '/cache/transcodes/1bcb9f2dbac177c6412c1e4e405f44bb195.mp4' for writing
[hls @ 0x7ffec40c5500] Opening '/cache/transcodes/1bcb9f2dbac177c6412c1e4e405f44bb196.mp4' for writing
[hls @ 0x7ffec40c5500] Opening '/cache/transcodes/1bcb9f2dbac177c6412c1e4e405f44bb197.mp4' for writing
[hls @ 0x7ffec40c5500] Opening '/cache/transcodes/1bcb9f2dbac177c6412c1e4e405f44bb198.mp4' for writing
[hls @ 0x7ffec40c5500] Opening '/cache/transcodes/1bcb9f2dbac177c6412c1e4e405f44bb199.mp4' for writing
[hls @ 0x7ffec40c5500] Opening '/cache/transcodes/1bcb9f2dbac177c6412c1e4e405f44bb200.mp4' for writing
[hls @ 0x7ffec40c5500] Opening '/cache/transcodes/1bcb9f2dbac177c6412c1e4e405f44bb201.mp4' for writing
[hls @ 0x7ffec40c5500] Opening '/cache/transcodes/1bcb9f2dbac177c6412c1e4e405f44bb202.mp4' for writing
[hls @ 0x7ffec40c5500] Opening '/cache/transcodes/1bcb9f2dbac177c6412c1e4e405f44bb203.mp4' for writing
[hls @ 0x7ffec40c5500] Opening '/cache/transcodes/1bcb9f2dbac177c6412c1e4e405f44bb204.mp4' for writing
[hls @ 0x7ffec40c5500] Opening '/cache/transcodes/1bcb9f2dbac177c6412c1e4e405f44bb205.mp4' for writing
[hls @ 0x7ffec40c5500] Opening '/cache/transcodes/1bcb9f2dbac177c6412c1e4e405f44bb206.mp4' for writing
[hls @ 0x7ffec40c5500] Opening '/cache/transcodes/1bcb9f2dbac177c6412c1e4e405f44bb207.mp4' for writing
[hls @ 0x7ffec40c5500] Opening '/cache/transcodes/1bcb9f2dbac177c6412c1e4e405f44bb208.mp4' for writing
[hls @ 0x7ffec40c5500] Opening '/cache/transcodes/1bcb9f2dbac177c6412c1e4e405f44bb209.mp4' for writing
[hls @ 0x7ffec40c5500] Opening '/cache/transcodes/1bcb9f2dbac177c6412c1e4e405f44bb210.mp4' for writing
[hls @ 0x7ffec40c5500] Opening '/cache/transcodes/1bcb9f2dbac177c6412c1e4e405f44bb211.mp4' for writing
[hls @ 0x7ffec40c5500] Opening '/cache/transcodes/1bcb9f2dbac177c6412c1e4e405f44bb212.mp4' for writing
[hls @ 0x7ffec40c5500] Opening '/cache/transcodes/1bcb9f2dbac177c6412c1e4e405f44bb213.mp4' for writing
[hls @ 0x7ffec40c5500] Opening '/cache/transcodes/1bcb9f2dbac177c6412c1e4e405f44bb214.mp4' for writing
[hls @ 0x7ffec40c5500] Opening '/cache/transcodes/1bcb9f2dbac177c6412c1e4e405f44bb215.mp4' for writing
[hls @ 0x7ffec40c5500] Opening '/cache/transcodes/1bcb9f2dbac177c6412c1e4e405f44bb216.mp4' for writing
[hls @ 0x7ffec40c5500] Opening '/cache/transcodes/1bcb9f2dbac177c6412c1e4e405f44bb217.mp4' for writing
[hls @ 0x7ffec40c5500] Opening '/cache/transcodes/1bcb9f2dbac177c6412c1e4e405f44bb218.mp4' for writing
[hls @ 0x7ffec40c5500] Opening '/cache/transcodes/1bcb9f2dbac177c6412c1e4e405f44bb219.mp4' for writing
[hls @ 0x7ffec40c5500] Opening '/cache/transcodes/1bcb9f2dbac177c6412c1e4e405f44bb220.mp4' for writing
[hls @ 0x7ffec40c5500] Opening '/cache/transcodes/1bcb9f2dbac177c6412c1e4e405f44bb221.mp4' for writing
[hls @ 0x7ffec40c5500] Opening '/cache/transcodes/1bcb9f2dbac177c6412c1e4e405f44bb222.mp4' for writing
[hls @ 0x7ffec40c5500] Opening '/cache/transcodes/1bcb9f2dbac177c6412c1e4e405f44bb223.mp4' for writing
[hls @ 0x7ffec40c5500] Opening '/cache/transcodes/1bcb9f2dbac177c6412c1e4e405f44bb224.mp4' for writing
[hls @ 0x7ffec40c5500] Opening '/cache/transcodes/1bcb9f2dbac177c6412c1e4e405f44bb225.mp4' for writing
[hls @ 0x7ffec40c5500] Opening '/cache/transcodes/1bcb9f2dbac177c6412c1e4e405f44bb226.mp4' for writing
[hls @ 0x7ffec40c5500] Opening '/cache/transcodes/1bcb9f2dbac177c6412c1e4e405f44bb227.mp4' for writing
[hls @ 0x7ffec40c5500] Opening '/cache/transcodes/1bcb9f2dbac177c6412c1e4e405f44bb228.mp4' for writing
[hls @ 0x7ffec40c5500] Opening '/cache/transcodes/1bcb9f2dbac177c6412c1e4e405f44bb229.mp4' for writing
[hls @ 0x7ffec40c5500] Opening '/cache/transcodes/1bcb9f2dbac177c6412c1e4e405f44bb230.mp4' for writing
[hls @ 0x7ffec40c5500] Opening '/cache/transcodes/1bcb9f2dbac177c6412c1e4e405f44bb231.mp4' for writing
[hls @ 0x7ffec40c5500] Opening '/cache/transcodes/1bcb9f2dbac177c6412c1e4e405f44bb232.mp4' for writing
frame=33698 fps=9613 q=-1.0 size=N/A time=00:21:01.68 bitrate=N/A speed= 360x    
[hls @ 0x7ffec40c5500] Opening '/cache/transcodes/1bcb9f2dbac177c6412c1e4e405f44bb233.mp4' for writing
[hls @ 0x7ffec40c5500] Opening '/cache/transcodes/1bcb9f2dbac177c6412c1e4e405f44bb234.mp4' for writing
[hls @ 0x7ffec40c5500] Opening '/cache/transcodes/1bcb9f2dbac177c6412c1e4e405f44bb235.mp4' for writing
[hls @ 0x7ffec40c5500] Opening '/cache/transcodes/1bcb9f2dbac177c6412c1e4e405f44bb236.mp4' for writing
[hls @ 0x7ffec40c5500] Opening '/cache/transcodes/1bcb9f2dbac177c6412c1e4e405f44bb237.mp4' for writing
[hls @ 0x7ffec40c5500] Opening '/cache/transcodes/1bcb9f2dbac177c6412c1e4e405f44bb238.mp4' for writing
[hls @ 0x7ffec40c5500] Opening '/cache/transcodes/1bcb9f2dbac177c6412c1e4e405f44bb239.mp4' for writing
[hls @ 0x7ffec40c5500] Opening '/cache/transcodes/1bcb9f2dbac177c6412c1e4e405f44bb240.mp4' for writing
[hls @ 0x7ffec40c5500] Opening '/cache/transcodes/1bcb9f2dbac177c6412c1e4e405f44bb241.mp4' for writing
[hls @ 0x7ffec40c5500] Opening '/cache/transcodes/1bcb9f2dbac177c6412c1e4e405f44bb242.mp4' for writing
[hls @ 0x7ffec40c5500] Opening '/cache/transcodes/1bcb9f2dbac177c6412c1e4e405f44bb243.mp4' for writing
[hls @ 0x7ffec40c5500] Opening '/cache/transcodes/1bcb9f2dbac177c6412c1e4e405f44bb244.mp4' for writing
[hls @ 0x7ffec40c5500] Opening '/cache/transcodes/1bcb9f2dbac177c6412c1e4e405f44bb245.mp4' for writing
[hls @ 0x7ffec40c5500] Opening '/cache/transcodes/1bcb9f2dbac177c6412c1e4e405f44bb246.mp4' for writing
[hls @ 0x7ffec40c5500] Opening '/cache/transcodes/1bcb9f2dbac177c6412c1e4e405f44bb247.mp4' for writing
[hls @ 0x7ffec40c5500] Opening '/cache/transcodes/1bcb9f2dbac177c6412c1e4e405f44bb248.mp4' for writing
[hls @ 0x7ffec40c5500] Opening '/cache/transcodes/1bcb9f2dbac177c6412c1e4e405f44bb249.mp4' for writing
[hls @ 0x7ffec40c5500] Opening '/cache/transcodes/1bcb9f2dbac177c6412c1e4e405f44bb250.mp4' for writing
[hls @ 0x7ffec40c5500] Opening '/cache/transcodes/1bcb9f2dbac177c6412c1e4e405f44bb251.mp4' for writing
[hls @ 0x7ffec40c5500] Opening '/cache/transcodes/1bcb9f2dbac177c6412c1e4e405f44bb252.mp4' for writing
[hls @ 0x7ffec40c5500] Opening '/cache/transcodes/1bcb9f2dbac177c6412c1e4e405f44bb253.mp4' for writing
[hls @ 0x7ffec40c5500] Opening '/cache/transcodes/1bcb9f2dbac177c6412c1e4e405f44bb254.mp4' for writing
[hls @ 0x7ffec40c5500] Opening '/cache/transcodes/1bcb9f2dbac177c6412c1e4e405f44bb255.mp4' for writing
[hls @ 0x7ffec40c5500] Opening '/cache/transcodes/1bcb9f2dbac177c6412c1e4e405f44bb256.mp4' for writing
[hls @ 0x7ffec40c5500] Opening '/cache/transcodes/1bcb9f2dbac177c6412c1e4e405f44bb257.mp4' for writing
[hls @ 0x7ffec40c5500] Opening '/cache/transcodes/1bcb9f2dbac177c6412c1e4e405f44bb258.mp4' for writing
[hls @ 0x7ffec40c5500] Opening '/cache/transcodes/1bcb9f2dbac177c6412c1e4e405f44bb259.mp4' for writing
[hls @ 0x7ffec40c5500] Opening '/cache/transcodes/1bcb9f2dbac177c6412c1e4e405f44bb260.mp4' for writing
[hls @ 0x7ffec40c5500] Opening '/cache/transcodes/1bcb9f2dbac177c6412c1e4e405f44bb261.mp4' for writing
frame=37807 fps=9438 q=-1.0 size=N/A time=00:23:52.79 bitrate=N/A speed= 358x    
[hls @ 0x7ffec40c5500] Opening '/cache/transcodes/1bcb9f2dbac177c6412c1e4e405f44bb262.mp4' for writing
[hls @ 0x7ffec40c5500] Opening '/cache/transcodes/1bcb9f2dbac177c6412c1e4e405f44bb263.mp4' for writing
[hls @ 0x7ffec40c5500] Opening '/cache/transcodes/1bcb9f2dbac177c6412c1e4e405f44bb264.mp4' for writing
[hls @ 0x7ffec40c5500] Opening '/cache/transcodes/1bcb9f2dbac177c6412c1e4e405f44bb265.mp4' for writing
[hls @ 0x7ffec40c5500] Opening '/cache/transcodes/1bcb9f2dbac177c6412c1e4e405f44bb266.mp4' for writing
[hls @ 0x7ffec40c5500] Opening '/cache/transcodes/1bcb9f2dbac177c6412c1e4e405f44bb267.mp4' for writing
[hls @ 0x7ffec40c5500] Opening '/cache/transcodes/1bcb9f2dbac177c6412c1e4e405f44bb268.mp4' for writing
[hls @ 0x7ffec40c5500] Opening '/cache/transcodes/1bcb9f2dbac177c6412c1e4e405f44bb269.mp4' for writing
[hls @ 0x7ffec40c5500] Opening '/cache/transcodes/1bcb9f2dbac177c6412c1e4e405f44bb270.mp4' for writing
[hls @ 0x7ffec40c5500] Opening '/cache/transcodes/1bcb9f2dbac177c6412c1e4e405f44bb271.mp4' for writing
[hls @ 0x7ffec40c5500] Opening '/cache/transcodes/1bcb9f2dbac177c6412c1e4e405f44bb272.mp4' for writing
[hls @ 0x7ffec40c5500] Opening '/cache/transcodes/1bcb9f2dbac177c6412c1e4e405f44bb273.mp4' for writing
[hls @ 0x7ffec40c5500] Opening '/cache/transcodes/1bcb9f2dbac177c6412c1e4e405f44bb274.mp4' for writing
[hls @ 0x7ffec40c5500] Opening '/cache/transcodes/1bcb9f2dbac177c6412c1e4e405f44bb275.mp4' for writing
[hls @ 0x7ffec40c5500] Opening '/cache/transcodes/1bcb9f2dbac177c6412c1e4e405f44bb276.mp4' for writing
[hls @ 0x7ffec40c5500] Opening '/cache/transcodes/1bcb9f2dbac177c6412c1e4e405f44bb277.mp4' for writing
[hls @ 0x7ffec40c5500] Opening '/cache/transcodes/1bcb9f2dbac177c6412c1e4e405f44bb278.mp4' for writing
[hls @ 0x7ffec40c5500] Opening '/cache/transcodes/1bcb9f2dbac177c6412c1e4e405f44bb279.mp4' for writing
[hls @ 0x7ffec40c5500] Opening '/cache/transcodes/1bcb9f2dbac177c6412c1e4e405f44bb280.mp4' for writing
[hls @ 0x7ffec40c5500] Opening '/cache/transcodes/1bcb9f2dbac177c6412c1e4e405f44bb281.mp4' for writing
[hls @ 0x7ffec40c5500] Opening '/cache/transcodes/1bcb9f2dbac177c6412c1e4e405f44bb282.mp4' for writing
[hls @ 0x7ffec40c5500] Opening '/cache/transcodes/1bcb9f2dbac177c6412c1e4e405f44bb283.mp4' for writing
[hls @ 0x7ffec40c5500] Opening '/cache/transcodes/1bcb9f2dbac177c6412c1e4e405f44bb284.mp4' for writing
[hls @ 0x7ffec40c5500] Opening '/cache/transcodes/1bcb9f2dbac177c6412c1e4e405f44bb285.mp4' for writing
[hls @ 0x7ffec40c5500] Opening '/cache/transcodes/1bcb9f2dbac177c6412c1e4e405f44bb286.mp4' for writing
[hls @ 0x7ffec40c5500] Opening '/cache/transcodes/1bcb9f2dbac177c6412c1e4e405f44bb287.mp4' for writing
[hls @ 0x7ffec40c5500] Opening '/cache/transcodes/1bcb9f2dbac177c6412c1e4e405f44bb288.mp4' for writing
[hls @ 0x7ffec40c5500] Opening '/cache/transcodes/1bcb9f2dbac177c6412c1e4e405f44bb289.mp4' for writing
[hls @ 0x7ffec40c5500] Opening '/cache/transcodes/1bcb9f2dbac177c6412c1e4e405f44bb290.mp4' for writing
[hls @ 0x7ffec40c5500] Opening '/cache/transcodes/1bcb9f2dbac177c6412c1e4e405f44bb291.mp4' for writing
[hls @ 0x7ffec40c5500] Opening '/cache/transcodes/1bcb9f2dbac177c6412c1e4e405f44bb292.mp4' for writing
[hls @ 0x7ffec40c5500] Opening '/cache/transcodes/1bcb9f2dbac177c6412c1e4e405f44bb293.mp4' for writing
[hls @ 0x7ffec40c5500] Opening '/cache/transcodes/1bcb9f2dbac177c6412c1e4e405f44bb294.mp4' for writing
[hls @ 0x7ffec40c5500] Opening '/cache/transcodes/1bcb9f2dbac177c6412c1e4e405f44bb295.mp4' for writing
[hls @ 0x7ffec40c5500] Opening '/cache/transcodes/1bcb9f2dbac177c6412c1e4e405f44bb296.mp4' for writing
[hls @ 0x7ffec40c5500] Opening '/cache/transcodes/1bcb9f2dbac177c6412c1e4e405f44bb297.mp4' for writing
[hls @ 0x7ffec40c5500] Opening '/cache/transcodes/1bcb9f2dbac177c6412c1e4e405f44bb298.mp4' for writing
[hls @ 0x7ffec40c5500] Opening '/cache/transcodes/1bcb9f2dbac177c6412c1e4e405f44bb299.mp4' for writing
[hls @ 0x7ffec40c5500] Opening '/cache/transcodes/1bcb9f2dbac177c6412c1e4e405f44bb300.mp4' for writing
[hls @ 0x7ffec40c5500] Opening '/cache/transcodes/1bcb9f2dbac177c6412c1e4e405f44bb301.mp4' for writing
[hls @ 0x7ffec40c5500] Opening '/cache/transcodes/1bcb9f2dbac177c6412c1e4e405f44bb302.mp4' for writing
[hls @ 0x7ffec40c5500] Opening '/cache/transcodes/1bcb9f2dbac177c6412c1e4e405f44bb303.mp4' for writing
[hls @ 0x7ffec40c5500] Opening '/cache/transcodes/1bcb9f2dbac177c6412c1e4e405f44bb304.mp4' for writing
[hls @ 0x7ffec40c5500] Opening '/cache/transcodes/1bcb9f2dbac177c6412c1e4e405f44bb305.mp4' for writing
frame=44215 fps=9813 q=-1.0 size=N/A time=00:28:19.88 bitrate=N/A speed= 377x    
[hls @ 0x7ffec40c5500] Opening '/cache/transcodes/1bcb9f2dbac177c6412c1e4e405f44bb306.mp4' for writing
[hls @ 0x7ffec40c5500] Opening '/cache/transcodes/1bcb9f2dbac177c6412c1e4e405f44bb307.mp4' for writing
[hls @ 0x7ffec40c5500] Opening '/cache/transcodes/1bcb9f2dbac177c6412c1e4e405f44bb308.mp4' for writing
[hls @ 0x7ffec40c5500] Opening '/cache/transcodes/1bcb9f2dbac177c6412c1e4e405f44bb309.mp4' for writing
[hls @ 0x7ffec40c5500] Opening '/cache/transcodes/1bcb9f2dbac177c6412c1e4e405f44bb310.mp4' for writing
[hls @ 0x7ffec40c5500] Opening '/cache/transcodes/1bcb9f2dbac177c6412c1e4e405f44bb311.mp4' for writing
[hls @ 0x7ffec40c5500] Opening '/cache/transcodes/1bcb9f2dbac177c6412c1e4e405f44bb312.mp4' for writing
[hls @ 0x7ffec40c5500] Opening '/cache/transcodes/1bcb9f2dbac177c6412c1e4e405f44bb313.mp4' for writing
[hls @ 0x7ffec40c5500] Opening '/cache/transcodes/1bcb9f2dbac177c6412c1e4e405f44bb314.mp4' for writing
[hls @ 0x7ffec40c5500] Opening '/cache/transcodes/1bcb9f2dbac177c6412c1e4e405f44bb315.mp4' for writing
[hls @ 0x7ffec40c5500] Opening '/cache/transcodes/1bcb9f2dbac177c6412c1e4e405f44bb316.mp4' for writing
[hls @ 0x7ffec40c5500] Opening '/cache/transcodes/1bcb9f2dbac177c6412c1e4e405f44bb317.mp4' for writing
[hls @ 0x7ffec40c5500] Opening '/cache/transcodes/1bcb9f2dbac177c6412c1e4e405f44bb318.mp4' for writing
[hls @ 0x7ffec40c5500] Opening '/cache/transcodes/1bcb9f2dbac177c6412c1e4e405f44bb319.mp4' for writing
[hls @ 0x7ffec40c5500] Opening '/cache/transcodes/1bcb9f2dbac177c6412c1e4e405f44bb320.mp4' for writing
[hls @ 0x7ffec40c5500] Opening '/cache/transcodes/1bcb9f2dbac177c6412c1e4e405f44bb321.mp4' for writing
[hls @ 0x7ffec40c5500] Opening '/cache/transcodes/1bcb9f2dbac177c6412c1e4e405f44bb322.mp4' for writing
[hls @ 0x7ffec40c5500] Opening '/cache/transcodes/1bcb9f2dbac177c6412c1e4e405f44bb323.mp4' for writing
[hls @ 0x7ffec40c5500] Opening '/cache/transcodes/1bcb9f2dbac177c6412c1e4e405f44bb324.mp4' for writing
[hls @ 0x7ffec40c5500] Opening '/cache/transcodes/1bcb9f2dbac177c6412c1e4e405f44bb325.mp4' for writing
[hls @ 0x7ffec40c5500] Opening '/cache/transcodes/1bcb9f2dbac177c6412c1e4e405f44bb326.mp4' for writing
[hls @ 0x7ffec40c5500] Opening '/cache/transcodes/1bcb9f2dbac177c6412c1e4e405f44bb327.mp4' for writing
[hls @ 0x7ffec40c5500] Opening '/cache/transcodes/1bcb9f2dbac177c6412c1e4e405f44bb328.mp4' for writing
[hls @ 0x7ffec40c5500] Opening '/cache/transcodes/1bcb9f2dbac177c6412c1e4e405f44bb329.mp4' for writing
[hls @ 0x7ffec40c5500] Opening '/cache/transcodes/1bcb9f2dbac177c6412c1e4e405f44bb330.mp4' for writing
[hls @ 0x7ffec40c5500] Opening '/cache/transcodes/1bcb9f2dbac177c6412c1e4e405f44bb331.mp4' for writing
[hls @ 0x7ffec40c5500] Opening '/cache/transcodes/1bcb9f2dbac177c6412c1e4e405f44bb332.mp4' for writing
[hls @ 0x7ffec40c5500] Opening '/cache/transcodes/1bcb9f2dbac177c6412c1e4e405f44bb333.mp4' for writing
[hls @ 0x7ffec40c5500] Opening '/cache/transcodes/1bcb9f2dbac177c6412c1e4e405f44bb334.mp4' for writing
[hls @ 0x7ffec40c5500] Opening '/cache/transcodes/1bcb9f2dbac177c6412c1e4e405f44bb335.mp4' for writing
[hls @ 0x7ffec40c5500] Opening '/cache/transcodes/1bcb9f2dbac177c6412c1e4e405f44bb336.mp4' for writing
[hls @ 0x7ffec40c5500] Opening '/cache/transcodes/1bcb9f2dbac177c6412c1e4e405f44bb337.mp4' for writing
[hls @ 0x7ffec40c5500] Opening '/cache/transcodes/1bcb9f2dbac177c6412c1e4e405f44bb338.mp4' for writing
[hls @ 0x7ffec40c5500] Opening '/cache/transcodes/1bcb9f2dbac177c6412c1e4e405f44bb339.mp4' for writing
[hls @ 0x7ffec40c5500] Opening '/cache/transcodes/1bcb9f2dbac177c6412c1e4e405f44bb340.mp4' for writing
frame=49199 fps=9828 q=-1.0 size=N/A time=00:31:47.45 bitrate=N/A speed= 381x    
[hls @ 0x7ffec40c5500] Opening '/cache/transcodes/1bcb9f2dbac177c6412c1e4e405f44bb341.mp4' for writing
[hls @ 0x7ffec40c5500] Opening '/cache/transcodes/1bcb9f2dbac177c6412c1e4e405f44bb342.mp4' for writing
[hls @ 0x7ffec40c5500] Opening '/cache/transcodes/1bcb9f2dbac177c6412c1e4e405f44bb343.mp4' for writing
[hls @ 0x7ffec40c5500] Opening '/cache/transcodes/1bcb9f2dbac177c6412c1e4e405f44bb344.mp4' for writing
[hls @ 0x7ffec40c5500] Opening '/cache/transcodes/1bcb9f2dbac177c6412c1e4e405f44bb345.mp4' for writing
[hls @ 0x7ffec40c5500] Opening '/cache/transcodes/1bcb9f2dbac177c6412c1e4e405f44bb346.mp4' for writing
[hls @ 0x7ffec40c5500] Opening '/cache/transcodes/1bcb9f2dbac177c6412c1e4e405f44bb347.mp4' for writing
[hls @ 0x7ffec40c5500] Opening '/cache/transcodes/1bcb9f2dbac177c6412c1e4e405f44bb348.mp4' for writing
[hls @ 0x7ffec40c5500] Opening '/cache/transcodes/1bcb9f2dbac177c6412c1e4e405f44bb349.mp4' for writing
[hls @ 0x7ffec40c5500] Opening '/cache/transcodes/1bcb9f2dbac177c6412c1e4e405f44bb350.mp4' for writing
[hls @ 0x7ffec40c5500] Opening '/cache/transcodes/1bcb9f2dbac177c6412c1e4e405f44bb351.mp4' for writing
[hls @ 0x7ffec40c5500] Opening '/cache/transcodes/1bcb9f2dbac177c6412c1e4e405f44bb352.mp4' for writing
[hls @ 0x7ffec40c5500] Opening '/cache/transcodes/1bcb9f2dbac177c6412c1e4e405f44bb353.mp4' for writing
[hls @ 0x7ffec40c5500] Opening '/cache/transcodes/1bcb9f2dbac177c6412c1e4e405f44bb354.mp4' for writing
[hls @ 0x7ffec40c5500] Opening '/cache/transcodes/1bcb9f2dbac177c6412c1e4e405f44bb355.mp4' for writing
[hls @ 0x7ffec40c5500] Opening '/cache/transcodes/1bcb9f2dbac177c6412c1e4e405f44bb356.mp4' for writing
[hls @ 0x7ffec40c5500] Opening '/cache/transcodes/1bcb9f2dbac177c6412c1e4e405f44bb357.mp4' for writing
[hls @ 0x7ffec40c5500] Opening '/cache/transcodes/1bcb9f2dbac177c6412c1e4e405f44bb358.mp4' for writing
[hls @ 0x7ffec40c5500] Opening '/cache/transcodes/1bcb9f2dbac177c6412c1e4e405f44bb359.mp4' for writing
[hls @ 0x7ffec40c5500] Opening '/cache/transcodes/1bcb9f2dbac177c6412c1e4e405f44bb360.mp4' for writing
[hls @ 0x7ffec40c5500] Opening '/cache/transcodes/1bcb9f2dbac177c6412c1e4e405f44bb361.mp4' for writing
[hls @ 0x7ffec40c5500] Opening '/cache/transcodes/1bcb9f2dbac177c6412c1e4e405f44bb362.mp4' for writing
[hls @ 0x7ffec40c5500] Opening '/cache/transcodes/1bcb9f2dbac177c6412c1e4e405f44bb363.mp4' for writing
[hls @ 0x7ffec40c5500] Opening '/cache/transcodes/1bcb9f2dbac177c6412c1e4e405f44bb364.mp4' for writing
[hls @ 0x7ffec40c5500] Opening '/cache/transcodes/1bcb9f2dbac177c6412c1e4e405f44bb365.mp4' for writing
[hls @ 0x7ffec40c5500] Opening '/cache/transcodes/1bcb9f2dbac177c6412c1e4e405f44bb366.mp4' for writing
[hls @ 0x7ffec40c5500] Opening '/cache/transcodes/1bcb9f2dbac177c6412c1e4e405f44bb367.mp4' for writing
[hls @ 0x7ffec40c5500] Opening '/cache/transcodes/1bcb9f2dbac177c6412c1e4e405f44bb368.mp4' for writing
[hls @ 0x7ffec40c5500] Opening '/cache/transcodes/1bcb9f2dbac177c6412c1e4e405f44bb369.mp4' for writing
[hls @ 0x7ffec40c5500] Opening '/cache/transcodes/1bcb9f2dbac177c6412c1e4e405f44bb370.mp4' for writing
[hls @ 0x7ffec40c5500] Opening '/cache/transcodes/1bcb9f2dbac177c6412c1e4e405f44bb371.mp4' for writing
[hls @ 0x7ffec40c5500] Opening '/cache/transcodes/1bcb9f2dbac177c6412c1e4e405f44bb372.mp4' for writing
[hls @ 0x7ffec40c5500] Opening '/cache/transcodes/1bcb9f2dbac177c6412c1e4e405f44bb373.mp4' for writing
[hls @ 0x7ffec40c5500] Opening '/cache/transcodes/1bcb9f2dbac177c6412c1e4e405f44bb374.mp4' for writing
[hls @ 0x7ffec40c5500] Opening '/cache/transcodes/1bcb9f2dbac177c6412c1e4e405f44bb375.mp4' for writing
[hls @ 0x7ffec40c5500] Opening '/cache/transcodes/1bcb9f2dbac177c6412c1e4e405f44bb376.mp4' for writing
[hls @ 0x7ffec40c5500] Opening '/cache/transcodes/1bcb9f2dbac177c6412c1e4e405f44bb377.mp4' for writing
[hls @ 0x7ffec40c5500] Opening '/cache/transcodes/1bcb9f2dbac177c6412c1e4e405f44bb378.mp4' for writing
[hls @ 0x7ffec40c5500] Opening '/cache/transcodes/1bcb9f2dbac177c6412c1e4e405f44bb379.mp4' for writing
[hls @ 0x7ffec40c5500] Opening '/cache/transcodes/1bcb9f2dbac177c6412c1e4e405f44bb380.mp4' for writing
[hls @ 0x7ffec40c5500] Opening '/cache/transcodes/1bcb9f2dbac177c6412c1e4e405f44bb381.mp4' for writing
[hls @ 0x7ffec40c5500] Opening '/cache/transcodes/1bcb9f2dbac177c6412c1e4e405f44bb382.mp4' for writing
[hls @ 0x7ffec40c5500] Opening '/cache/transcodes/1bcb9f2dbac177c6412c1e4e405f44bb383.mp4' for writing
[hls @ 0x7ffec40c5500] Opening '/cache/transcodes/1bcb9f2dbac177c6412c1e4e405f44bb384.mp4' for writing
[hls @ 0x7ffec40c5500] Opening '/cache/transcodes/1bcb9f2dbac177c6412c1e4e405f44bb385.mp4' for writing
frame=55700 fps=10116 q=-1.0 size=N/A time=00:36:18.33 bitrate=N/A speed= 396x    
[hls @ 0x7ffec40c5500] Opening '/cache/transcodes/1bcb9f2dbac177c6412c1e4e405f44bb386.mp4' for writing
[hls @ 0x7ffec40c5500] Opening '/cache/transcodes/1bcb9f2dbac177c6412c1e4e405f44bb387.mp4' for writing
[hls @ 0x7ffec40c5500] Opening '/cache/transcodes/1bcb9f2dbac177c6412c1e4e405f44bb388.mp4' for writing
[hls @ 0x7ffec40c5500] Opening '/cache/transcodes/1bcb9f2dbac177c6412c1e4e405f44bb389.mp4' for writing
[hls @ 0x7ffec40c5500] Opening '/cache/transcodes/1bcb9f2dbac177c6412c1e4e405f44bb390.mp4' for writing
[hls @ 0x7ffec40c5500] Opening '/cache/transcodes/1bcb9f2dbac177c6412c1e4e405f44bb391.mp4' for writing
[hls @ 0x7ffec40c5500] Opening '/cache/transcodes/1bcb9f2dbac177c6412c1e4e405f44bb392.mp4' for writing
[hls @ 0x7ffec40c5500] Opening '/cache/transcodes/1bcb9f2dbac177c6412c1e4e405f44bb393.mp4' for writing
[hls @ 0x7ffec40c5500] Opening '/cache/transcodes/1bcb9f2dbac177c6412c1e4e405f44bb394.mp4' for writing
[hls @ 0x7ffec40c5500] Opening '/cache/transcodes/1bcb9f2dbac177c6412c1e4e405f44bb395.mp4' for writing
[hls @ 0x7ffec40c5500] Opening '/cache/transcodes/1bcb9f2dbac177c6412c1e4e405f44bb396.mp4' for writing
[hls @ 0x7ffec40c5500] Opening '/cache/transcodes/1bcb9f2dbac177c6412c1e4e405f44bb397.mp4' for writing
[hls @ 0x7ffec40c5500] Opening '/cache/transcodes/1bcb9f2dbac177c6412c1e4e405f44bb398.mp4' for writing
[hls @ 0x7ffec40c5500] Opening '/cache/transcodes/1bcb9f2dbac177c6412c1e4e405f44bb399.mp4' for writing
[hls @ 0x7ffec40c5500] Opening '/cache/transcodes/1bcb9f2dbac177c6412c1e4e405f44bb400.mp4' for writing
[hls @ 0x7ffec40c5500] Opening '/cache/transcodes/1bcb9f2dbac177c6412c1e4e405f44bb401.mp4' for writing
[hls @ 0x7ffec40c5500] Opening '/cache/transcodes/1bcb9f2dbac177c6412c1e4e405f44bb402.mp4' for writing
[hls @ 0x7ffec40c5500] Opening '/cache/transcodes/1bcb9f2dbac177c6412c1e4e405f44bb403.mp4' for writing
[hls @ 0x7ffec40c5500] Opening '/cache/transcodes/1bcb9f2dbac177c6412c1e4e405f44bb404.mp4' for writing
[hls @ 0x7ffec40c5500] Opening '/cache/transcodes/1bcb9f2dbac177c6412c1e4e405f44bb405.mp4' for writing
[hls @ 0x7ffec40c5500] Opening '/cache/transcodes/1bcb9f2dbac177c6412c1e4e405f44bb406.mp4' for writing
[hls @ 0x7ffec40c5500] Opening '/cache/transcodes/1bcb9f2dbac177c6412c1e4e405f44bb407.mp4' for writing
[hls @ 0x7ffec40c5500] Opening '/cache/transcodes/1bcb9f2dbac177c6412c1e4e405f44bb408.mp4' for writing
[hls @ 0x7ffec40c5500] Opening '/cache/transcodes/1bcb9f2dbac177c6412c1e4e405f44bb409.mp4' for writing
[hls @ 0x7ffec40c5500] Opening '/cache/transcodes/1bcb9f2dbac177c6412c1e4e405f44bb410.mp4' for writing
[hls @ 0x7ffec40c5500] Opening '/cache/transcodes/1bcb9f2dbac177c6412c1e4e405f44bb411.mp4' for writing
[hls @ 0x7ffec40c5500] Opening '/cache/transcodes/1bcb9f2dbac177c6412c1e4e405f44bb412.mp4' for writing
[hls @ 0x7ffec40c5500] Opening '/cache/transcodes/1bcb9f2dbac177c6412c1e4e405f44bb413.mp4' for writing
[hls @ 0x7ffec40c5500] Opening '/cache/transcodes/1bcb9f2dbac177c6412c1e4e405f44bb414.mp4' for writing
[hls @ 0x7ffec40c5500] Opening '/cache/transcodes/1bcb9f2dbac177c6412c1e4e405f44bb415.mp4' for writing
[hls @ 0x7ffec40c5500] Opening '/cache/transcodes/1bcb9f2dbac177c6412c1e4e405f44bb416.mp4' for writing
[hls @ 0x7ffec40c5500] Opening '/cache/transcodes/1bcb9f2dbac177c6412c1e4e405f44bb417.mp4' for writing
[hls @ 0x7ffec40c5500] Opening '/cache/transcodes/1bcb9f2dbac177c6412c1e4e405f44bb418.mp4' for writing
[hls @ 0x7ffec40c5500] Opening '/cache/transcodes/1bcb9f2dbac177c6412c1e4e405f44bb419.mp4' for writing
[hls @ 0x7ffec40c5500] Opening '/cache/transcodes/1bcb9f2dbac177c6412c1e4e405f44bb420.mp4' for writing
[hls @ 0x7ffec40c5500] Opening '/cache/transcodes/1bcb9f2dbac177c6412c1e4e405f44bb421.mp4' for writing
[hls @ 0x7ffec40c5500] Opening '/cache/transcodes/1bcb9f2dbac177c6412c1e4e405f44bb422.mp4' for writing
[hls @ 0x7ffec40c5500] Opening '/cache/transcodes/1bcb9f2dbac177c6412c1e4e405f44bb423.mp4' for writing
[hls @ 0x7ffec40c5500] Opening '/cache/transcodes/1bcb9f2dbac177c6412c1e4e405f44bb424.mp4' for writing
[hls @ 0x7ffec40c5500] Opening '/cache/transcodes/1bcb9f2dbac177c6412c1e4e405f44bb425.mp4' for writing
[hls @ 0x7ffec40c5500] Opening '/cache/transcodes/1bcb9f2dbac177c6412c1e4e405f44bb426.mp4' for writing
[hls @ 0x7ffec40c5500] Opening '/cache/transcodes/1bcb9f2dbac177c6412c1e4e405f44bb427.mp4' for writing
frame=61773 fps=10285 q=-1.0 size=N/A time=00:40:31.47 bitrate=N/A speed= 405x    
[hls @ 0x7ffec40c5500] Opening '/cache/transcodes/1bcb9f2dbac177c6412c1e4e405f44bb428.mp4' for writing
[hls @ 0x7ffec40c5500] Opening '/cache/transcodes/1bcb9f2dbac177c6412c1e4e405f44bb429.mp4' for writing
[hls @ 0x7ffec40c5500] Opening '/cache/transcodes/1bcb9f2dbac177c6412c1e4e405f44bb430.mp4' for writing
[hls @ 0x7ffec40c5500] Opening '/cache/transcodes/1bcb9f2dbac177c6412c1e4e405f44bb431.mp4' for writing
[hls @ 0x7ffec40c5500] Opening '/cache/transcodes/1bcb9f2dbac177c6412c1e4e405f44bb432.mp4' for writing
[hls @ 0x7ffec40c5500] Opening '/cache/transcodes/1bcb9f2dbac177c6412c1e4e405f44bb433.mp4' for writing
[hls @ 0x7ffec40c5500] Opening '/cache/transcodes/1bcb9f2dbac177c6412c1e4e405f44bb434.mp4' for writing
[hls @ 0x7ffec40c5500] Opening '/cache/transcodes/1bcb9f2dbac177c6412c1e4e405f44bb435.mp4' for writing
[hls @ 0x7ffec40c5500] Opening '/cache/transcodes/1bcb9f2dbac177c6412c1e4e405f44bb436.mp4' for writing
[hls @ 0x7ffec40c5500] Opening '/cache/transcodes/1bcb9f2dbac177c6412c1e4e405f44bb437.mp4' for writing
[hls @ 0x7ffec40c5500] Opening '/cache/transcodes/1bcb9f2dbac177c6412c1e4e405f44bb438.mp4' for writing
[hls @ 0x7ffec40c5500] Opening '/cache/transcodes/1bcb9f2dbac177c6412c1e4e405f44bb439.mp4' for writing
[hls @ 0x7ffec40c5500] Opening '/cache/transcodes/1bcb9f2dbac177c6412c1e4e405f44bb440.mp4' for writing
[hls @ 0x7ffec40c5500] Opening '/cache/transcodes/1bcb9f2dbac177c6412c1e4e405f44bb441.mp4' for writing
[hls @ 0x7ffec40c5500] Opening '/cache/transcodes/1bcb9f2dbac177c6412c1e4e405f44bb442.mp4' for writing
[hls @ 0x7ffec40c5500] Opening '/cache/transcodes/1bcb9f2dbac177c6412c1e4e405f44bb443.mp4' for writing
[hls @ 0x7ffec40c5500] Opening '/cache/transcodes/1bcb9f2dbac177c6412c1e4e405f44bb444.mp4' for writing
[hls @ 0x7ffec40c5500] Opening '/cache/transcodes/1bcb9f2dbac177c6412c1e4e405f44bb445.mp4' for writing
[hls @ 0x7ffec40c5500] Opening '/cache/transcodes/1bcb9f2dbac177c6412c1e4e405f44bb446.mp4' for writing
[hls @ 0x7ffec40c5500] Opening '/cache/transcodes/1bcb9f2dbac177c6412c1e4e405f44bb447.mp4' for writing
[hls @ 0x7ffec40c5500] Opening '/cache/transcodes/1bcb9f2dbac177c6412c1e4e405f44bb448.mp4' for writing
[hls @ 0x7ffec40c5500] Opening '/cache/transcodes/1bcb9f2dbac177c6412c1e4e405f44bb449.mp4' for writing
[hls @ 0x7ffec40c5500] Opening '/cache/transcodes/1bcb9f2dbac177c6412c1e4e405f44bb450.mp4' for writing
[hls @ 0x7ffec40c5500] Opening '/cache/transcodes/1bcb9f2dbac177c6412c1e4e405f44bb451.mp4' for writing
[hls @ 0x7ffec40c5500] Opening '/cache/transcodes/1bcb9f2dbac177c6412c1e4e405f44bb452.mp4' for writing
[hls @ 0x7ffec40c5500] Opening '/cache/transcodes/1bcb9f2dbac177c6412c1e4e405f44bb453.mp4' for writing
[hls @ 0x7ffec40c5500] Opening '/cache/transcodes/1bcb9f2dbac177c6412c1e4e405f44bb454.mp4' for writing
[hls @ 0x7ffec40c5500] Opening '/cache/transcodes/1bcb9f2dbac177c6412c1e4e405f44bb455.mp4' for writing
[hls @ 0x7ffec40c5500] Opening '/cache/transcodes/1bcb9f2dbac177c6412c1e4e405f44bb456.mp4' for writing
frame=65826 fps=10117 q=-1.0 size=N/A time=00:43:20.34 bitrate=N/A speed= 400x    
[hls @ 0x7ffec40c5500] Opening '/cache/transcodes/1bcb9f2dbac177c6412c1e4e405f44bb457.mp4' for writing
[hls @ 0x7ffec40c5500] Opening '/cache/transcodes/1bcb9f2dbac177c6412c1e4e405f44bb458.mp4' for writing
[hls @ 0x7ffec40c5500] Opening '/cache/transcodes/1bcb9f2dbac177c6412c1e4e405f44bb459.mp4' for writing
[hls @ 0x7ffec40c5500] Opening '/cache/transcodes/1bcb9f2dbac177c6412c1e4e405f44bb460.mp4' for writing
[hls @ 0x7ffec40c5500] Opening '/cache/transcodes/1bcb9f2dbac177c6412c1e4e405f44bb461.mp4' for writing
[hls @ 0x7ffec40c5500] Opening '/cache/transcodes/1bcb9f2dbac177c6412c1e4e405f44bb462.mp4' for writing
[hls @ 0x7ffec40c5500] Opening '/cache/transcodes/1bcb9f2dbac177c6412c1e4e405f44bb463.mp4' for writing
[hls @ 0x7ffec40c5500] Opening '/cache/transcodes/1bcb9f2dbac177c6412c1e4e405f44bb464.mp4' for writing
[hls @ 0x7ffec40c5500] Opening '/cache/transcodes/1bcb9f2dbac177c6412c1e4e405f44bb465.mp4' for writing
[hls @ 0x7ffec40c5500] Opening '/cache/transcodes/1bcb9f2dbac177c6412c1e4e405f44bb466.mp4' for writing
[hls @ 0x7ffec40c5500] Opening '/cache/transcodes/1bcb9f2dbac177c6412c1e4e405f44bb467.mp4' for writing
[hls @ 0x7ffec40c5500] Opening '/cache/transcodes/1bcb9f2dbac177c6412c1e4e405f44bb468.mp4' for writing
[hls @ 0x7ffec40c5500] Opening '/cache/transcodes/1bcb9f2dbac177c6412c1e4e405f44bb469.mp4' for writing
[hls @ 0x7ffec40c5500] Opening '/cache/transcodes/1bcb9f2dbac177c6412c1e4e405f44bb470.mp4' for writing
[hls @ 0x7ffec40c5500] Opening '/cache/transcodes/1bcb9f2dbac177c6412c1e4e405f44bb471.mp4' for writing
[hls @ 0x7ffec40c5500] Opening '/cache/transcodes/1bcb9f2dbac177c6412c1e4e405f44bb472.mp4' for writing
[hls @ 0x7ffec40c5500] Opening '/cache/transcodes/1bcb9f2dbac177c6412c1e4e405f44bb473.mp4' for writing
[hls @ 0x7ffec40c5500] Opening '/cache/transcodes/1bcb9f2dbac177c6412c1e4e405f44bb474.mp4' for writing
[hls @ 0x7ffec40c5500] Opening '/cache/transcodes/1bcb9f2dbac177c6412c1e4e405f44bb475.mp4' for writing
[hls @ 0x7ffec40c5500] Opening '/cache/transcodes/1bcb9f2dbac177c6412c1e4e405f44bb476.mp4' for writing
[hls @ 0x7ffec40c5500] Opening '/cache/transcodes/1bcb9f2dbac177c6412c1e4e405f44bb477.mp4' for writing
[hls @ 0x7ffec40c5500] Opening '/cache/transcodes/1bcb9f2dbac177c6412c1e4e405f44bb478.mp4' for writing
[hls @ 0x7ffec40c5500] Opening '/cache/transcodes/1bcb9f2dbac177c6412c1e4e405f44bb479.mp4' for writing
[hls @ 0x7ffec40c5500] Opening '/cache/transcodes/1bcb9f2dbac177c6412c1e4e405f44bb480.mp4' for writing
[hls @ 0x7ffec40c5500] Opening '/cache/transcodes/1bcb9f2dbac177c6412c1e4e405f44bb481.mp4' for writing
[hls @ 0x7ffec40c5500] Opening '/cache/transcodes/1bcb9f2dbac177c6412c1e4e405f44bb482.mp4' for writing
[hls @ 0x7ffec40c5500] Opening '/cache/transcodes/1bcb9f2dbac177c6412c1e4e405f44bb483.mp4' for writing
[hls @ 0x7ffec40c5500] Opening '/cache/transcodes/1bcb9f2dbac177c6412c1e4e405f44bb484.mp4' for writing
[hls @ 0x7ffec40c5500] Opening '/cache/transcodes/1bcb9f2dbac177c6412c1e4e405f44bb485.mp4' for writing
[hls @ 0x7ffec40c5500] Opening '/cache/transcodes/1bcb9f2dbac177c6412c1e4e405f44bb486.mp4' for writing
[hls @ 0x7ffec40c5500] Opening '/cache/transcodes/1bcb9f2dbac177c6412c1e4e405f44bb487.mp4' for writing
[hls @ 0x7ffec40c5500] Opening '/cache/transcodes/1bcb9f2dbac177c6412c1e4e405f44bb488.mp4' for writing
[hls @ 0x7ffec40c5500] Opening '/cache/transcodes/1bcb9f2dbac177c6412c1e4e405f44bb489.mp4' for writing
[hls @ 0x7ffec40c5500] Opening '/cache/transcodes/1bcb9f2dbac177c6412c1e4e405f44bb490.mp4' for writing
[hls @ 0x7ffec40c5500] Opening '/cache/transcodes/1bcb9f2dbac177c6412c1e4e405f44bb491.mp4' for writing
[hls @ 0x7ffec40c5500] Opening '/cache/transcodes/1bcb9f2dbac177c6412c1e4e405f44bb492.mp4' for writing
[hls @ 0x7ffec40c5500] Opening '/cache/transcodes/1bcb9f2dbac177c6412c1e4e405f44bb493.mp4' for writing
[hls @ 0x7ffec40c5500] Opening '/cache/transcodes/1bcb9f2dbac177c6412c1e4e405f44bb494.mp4' for writing
[hls @ 0x7ffec40c5500] Opening '/cache/transcodes/1bcb9f2dbac177c6412c1e4e405f44bb495.mp4' for writing


[q] command received. Exiting.

[hls @ 0x7ffec40c5500] Opening '/cache/transcodes/1bcb9f2dbac177c6412c1e4e405f44bb496.mp4' for writing
[out#0/hls @ 0x7ffec459d4c0] video:1089476KiB audio:116469KiB subtitle:0KiB other streams:0KiB global headers:0KiB muxing overhead: unknown
frame=71558 fps=10206 q=-1.0 Lsize=N/A time=00:47:19.06 bitrate=N/A speed= 405x    